<svg xmlns="http://www.w3.org/2000/svg" viewBox="0 0 800 600" role="img" aria-labelledby="title desc">
  <title id="title">Jess Fruity Pale Ale</title>
  <desc id="desc">Verre de pale ale fruitée avec houblon et nectarine</desc>
  <defs>
    <linearGradient id="bg" x1="0" x2="1" y1="0" y2="1">
      <stop offset="0" stop-color="#f8d58c"/>
      <stop offset="1" stop-color="#d95f46"/>
    </linearGradient>
    <linearGradient id="beer" x1="0" x2="0" y1="0" y2="1">
      <stop offset="0" stop-color="#ffd36f"/>
      <stop offset="1" stop-color="#d9791f"/>
    </linearGradient>
  </defs>
  <rect width="800" height="600" fill="url(#bg)"/>
  <circle cx="168" cy="144" r="62" fill="#f48d55" opacity=".75"/>
  <circle cx="636" cy="452" r="96" fill="#b23d31" opacity=".28"/>
  <path d="M264 144h272l-34 336c-4 38-36 66-74 66h-56c-38 0-70-28-74-66z" fill="#fff8e8" opacity=".88"/>
  <path d="M302 220h196l-26 250c-3 22-21 38-43 38h-58c-22 0-40-16-43-38z" fill="url(#beer)"/>
  <path d="M300 220c34-26 66 18 100-6 31-22 62 8 98 6v48H302z" fill="#fff8dc"/>
  <circle cx="374" cy="316" r="13" fill="#ffe5a9" opacity=".7"/>
  <circle cx="430" cy="388" r="10" fill="#ffe5a9" opacity=".6"/>
  <path d="M548 272c52-6 82 22 82 72 0 52-36 88-98 86l8-56c28 4 46-8 46-32 0-22-14-31-43-27z" fill="none" stroke="#fff8e8" stroke-width="28" stroke-linecap="round"/>
  <path d="M116 456c70-78 123-97 184-74" fill="none" stroke="#356f3b" stroke-width="16" stroke-linecap="round"/>
  <path d="M150 418c-34-26-24-69 20-84 18 41 13 70-20 84z" fill="#4d8b45"/>
  <path d="M217 386c-26-35-8-76 39-82 10 44-2 70-39 82z" fill="#6aa84f"/>
  <circle cx="172" cy="412" r="27" fill="#f6a15e"/>
  <text x="400" y="96" text-anchor="middle" font-family="Arial, sans-serif" font-size="34" font-weight="700" fill="#381c12">FRUITY PALE ALE</text>
</svg>
