<svg xmlns="http://www.w3.org/2000/svg" viewBox="0 0 800 600" role="img" aria-labelledby="title desc">
  <title id="title">Imperial Stout</title>
  <desc id="desc">Verre de stout noire avec mousse crème et grains torréfiés</desc>
  <defs>
    <linearGradient id="bg" x1="0" x2="1" y1="0" y2="1">
      <stop offset="0" stop-color="#30241d"/>
      <stop offset="1" stop-color="#0e0c0b"/>
    </linearGradient>
    <linearGradient id="beer" x1="0" x2="0" y1="0" y2="1">
      <stop offset="0" stop-color="#2a1711"/>
      <stop offset="1" stop-color="#050303"/>
    </linearGradient>
  </defs>
  <rect width="800" height="600" fill="url(#bg)"/>
  <ellipse cx="400" cy="510" rx="230" ry="38" fill="#000" opacity=".32"/>
  <path d="M260 118h280l-32 360c-4 42-38 74-80 74h-56c-42 0-76-32-80-74z" fill="#f7ead2" opacity=".86"/>
  <path d="M300 206h200l-24 260c-2 26-24 46-50 46h-52c-26 0-48-20-50-46z" fill="url(#beer)"/>
  <path d="M296 196c38-30 70 18 104-6 36-25 72 13 106 4v68H298z" fill="#f4dfba"/>
  <circle cx="352" cy="332" r="10" fill="#6b3e24" opacity=".8"/>
  <circle cx="428" cy="392" r="8" fill="#6b3e24" opacity=".8"/>
  <path d="M550 260c54 0 82 32 78 82-5 58-46 88-100 82l6-56c26 5 45-6 49-29 4-24-10-36-42-38z" fill="none" stroke="#f7ead2" stroke-width="28" stroke-linecap="round"/>
  <g fill="#7a4229">
    <ellipse cx="135" cy="464" rx="30" ry="14" transform="rotate(-22 135 464)"/>
    <ellipse cx="184" cy="502" rx="29" ry="13" transform="rotate(18 184 502)"/>
    <ellipse cx="626" cy="454" rx="31" ry="14" transform="rotate(24 626 454)"/>
    <ellipse cx="676" cy="502" rx="28" ry="13" transform="rotate(-18 676 502)"/>
  </g>
  <text x="400" y="82" text-anchor="middle" font-family="Arial, sans-serif" font-size="36" font-weight="700" fill="#f4dfba">IMPERIAL STOUT</text>
</svg>
