<svg xmlns="http://www.w3.org/2000/svg" viewBox="0 0 800 600" role="img" aria-labelledby="title desc">
  <title id="title">Saison</title>
  <desc id="desc">Bière saison blonde avec épis et levure expressive</desc>
  <defs>
    <linearGradient id="bg" x1="0" x2="1" y1="0" y2="1">
      <stop offset="0" stop-color="#efe0b2"/>
      <stop offset="1" stop-color="#8aa46a"/>
    </linearGradient>
    <linearGradient id="beer" x1="0" x2="0" y1="0" y2="1">
      <stop offset="0" stop-color="#ffe38a"/>
      <stop offset="1" stop-color="#d39428"/>
    </linearGradient>
  </defs>
  <rect width="800" height="600" fill="url(#bg)"/>
  <path d="M154 520c120-150 305-206 492-124" fill="none" stroke="#6f7f39" stroke-width="18" stroke-linecap="round" opacity=".7"/>
  <path d="M262 136h276l-36 344c-4 39-37 68-76 68h-52c-39 0-72-29-76-68z" fill="#fff7de" opacity=".9"/>
  <path d="M302 218h196l-26 250c-3 23-22 40-45 40h-54c-23 0-42-17-45-40z" fill="url(#beer)"/>
  <path d="M300 214c34-20 64 10 100-8 36-18 66 9 100 6v48H300z" fill="#fff2c5"/>
  <path d="M548 270c54-4 82 26 80 78-2 54-40 84-94 80l8-54c26 4 43-7 45-28 2-23-13-34-43-32z" fill="none" stroke="#fff7de" stroke-width="28" stroke-linecap="round"/>
  <g stroke="#e9c86c" stroke-width="8" stroke-linecap="round">
    <path d="M138 408l92-154"/>
    <path d="M174 350l-36-26M184 332l-42-10M198 308l-37-25M210 286l-42-10"/>
    <path d="M664 418l-94-162"/>
    <path d="M628 356l38-28M616 334l44-10M602 310l39-27M590 288l44-10"/>
  </g>
  <text x="400" y="88" text-anchor="middle" font-family="Arial, sans-serif" font-size="40" font-weight="700" fill="#42351b">SAISON</text>
</svg>
